HIERARCHY
ROOT Hips
{
  OFFSET 115.831 95.5908 276.424
  CHANNELS 6 Xposition Yposition Zposition Zrotation Xrotation Yrotation
  JOINT RightUpLeg
  {
    OFFSET -8.9458 -8.66707 0.101652
    CHANNELS 3 Zrotation Xrotation Yrotation
    JOINT RightLeg
    {
      OFFSET 0 -44.4227 1.3727
      CHANNELS 3 Zrotation Xrotation Yrotation
      JOINT RightFoot
      {
        OFFSET 0.253549 -42.0924 -1.46059
        CHANNELS 3 Zrotation Xrotation Yrotation
        JOINT RightToes
        {
          OFFSET 0.04 -4.41509 8.4991
          CHANNELS 3 Zrotation Xrotation Yrotation
          End Site
          {
            OFFSET -0.08 -0.137448 9.77979
          }
        }
      }
    }
  }
  JOINT Spine
  {
    OFFSET 0 11.8905 0
    CHANNELS 3 Zrotation Xrotation Yrotation
    JOINT Spine1
    {
      OFFSET 0 25.6574 0.127663
      CHANNELS 3 Zrotation Xrotation Yrotation
      JOINT HEad
      {
        OFFSET 0 8.73416 0.011341
        CHANNELS 3 Zrotation Xrotation Yrotation
        End Site
        {
          OFFSET -0.29 12.7742 2.51395
        }
      }
      JOINT LeftShoulder1
      {
        OFFSET 8.99 -0.362252 -0.22
        CHANNELS 3 Zrotation Xrotation Yrotation
        JOINT LeftArm
        {
          OFFSET 10.2827 -0.00338 0.322123
          CHANNELS 3 Zrotation Xrotation Yrotation
          JOINT LeftForeArm
          {
            OFFSET 32.7669 0.099144 -1.42434
            CHANNELS 3 Zrotation Xrotation Yrotation
            JOINT LeftHand
            {
              OFFSET 27.5643 0.085362 1.02216
              CHANNELS 3 Zrotation Xrotation Yrotation
              End Site
              {
                OFFSET 16.7443 -0.6 1.50291
              }
            }
          }
        }
      }
      JOINT RightShoulder
      {
        OFFSET -8.99 -0.362252 -0.22
        CHANNELS 3 Zrotation Xrotation Yrotation
        JOINT RightArm
        {
          OFFSET -10.2827 -0.00338 0.322123
          CHANNELS 3 Zrotation Xrotation Yrotation
          JOINT RightForeArm
          {
            OFFSET -32.8971 0.099144 -1.42434
            CHANNELS 3 Zrotation Xrotation Yrotation
            JOINT RightHand
            {
              OFFSET -27.4921 0.085362 1.02216
              CHANNELS 3 Zrotation Xrotation Yrotation
              End Site
              {
                OFFSET -16.6312 -0.6 1.50291
              }
            }
          }
        }
      }
    }
  }
  JOINT LeftUpLeg
  {
    OFFSET 8.9458 -8.66707 0.101652
    CHANNELS 3 Zrotation Xrotation Yrotation
    JOINT LeftLeg
    {
      OFFSET 0 -44.4227 1.3727
      CHANNELS 3 Zrotation Xrotation Yrotation
      JOINT LeftFoot
      {
        OFFSET -0.253549 -42.0924 -1.46059
        CHANNELS 3 Zrotation Xrotation Yrotation
        JOINT LeftToes
        {
          OFFSET -0.04 -4.41509 8.4991
          CHANNELS 3 Zrotation Xrotation Yrotation
          End Site
          {
            OFFSET 0.08 -0.047448 9.77979
          }
        }
      }
    }
  }
}
MOTION
Frames:	10
Frame Time:	0.0166667
103.754 98.8905 1.96357 -4.90857 4.09952 -169.547 -2.16253 -20.3347 -0.709171 1.12177 23.2338 1.9893 2.87768 -4.50261 -0.135855 0.212251 9.09058 -1.13936 -6.53757 12.7129 -2.19197 1.91905 -8.86737 -3.26763 -2.98081 2.05231 3.82196 -1.2424e-017 0 7.95139e-016 -114.462 -50.9365 -30.981 12.8284 7.91803 -14.0737 0.368473 9.90896 -0.00117926 15.9113 0.447371 -1.53441 73.738 -25.2407 3.44944 1.03182 13.2747 -1.12905 -0.369625 9.91382 0.00119886 -7.99792 6.59696 -1.55085 2.36896 32.5143 -5.62641 -0.749051 -8.44776 -0.00848743 3.69675 -8.52992 -2.034 
103.901 99.0716 0.358601 -4.37376 4.12395 -169.886 -1.26963 -19.6051 -1.10495 0.993232 23.6723 2.88367 2.65155 -5.27043 -0.119888 -0.000503637 7.9831 -0.80335 -6.17923 12.6687 -2.04635 2.6276 -9.26744 -3.14103 -3.32628 2.53645 4.01617 1.2424e-017 0 -0 -114.205 -52.3706 -29.7882 13.3987 7.88785 -13.6797 0.368473 9.90896 -0.00117926 16.2601 0.456555 -1.51976 72.7075 -26.1869 3.31271 1.03182 13.2747 -1.12905 -0.369625 9.91382 0.00119886 -7.05149 6.33715 -0.0770671 2.94695 34.1576 -6.55341 -1.29012 -7.52887 -0.0234734 6.91667 -9.01452 -2.29625 
104.038 99.2238 -1.16966 -3.92182 3.89584 -170.2 -0.547432 -19.1103 -0.849813 1.14477 23.9672 3.16429 2.23651 -5.36305 -0.122106 1.06017 5.87892 -1.03344 -5.6449 12.8969 -2.10314 3.37619 -10.2767 -3.18808 -3.84725 3.16274 4.57639 9.93923e-017 -7.95139e-016 -0 -113.443 -54.4657 -28.255 13.279 8.05035 -13.123 0.368473 9.90896 -0.00117926 15.6567 0.472808 -1.39477 72.531 -26.3906 3.00944 1.03182 13.2747 -1.12905 -0.369625 9.91382 0.00119886 -6.15715 5.38879 1.12529 3.23525 36.4203 -6.74779 -1.84092 -6.52213 -0.0294065 11.5273 -9.1043 -2.61193 
104.196 99.2831 -2.62671 -3.37284 3.57411 -170.38 0.236336 -18.8443 -0.317469 1.43901 24.395 2.99185 1.79607 -5.46441 -0.128715 2.14144 3.86563 -1.30721 -4.94944 13.3092 -2.28695 4.1239 -11.5051 -3.31272 -4.26609 3.71635 5.1558 -3.47873e-016 0 7.95139e-016 -112.184 -56.5859 -26.3707 12.9562 8.23315 -12.6701 0.368473 9.90896 -0.00117926 15.1126 0.494136 -1.25367 72.3922 -26.548 2.74489 1.03182 13.2747 -1.12905 -0.369625 9.91382 0.00119886 -5.1462 3.82931 2.24996 3.78836 39.324 -6.95642 -2.51334 -5.34489 -0.0194677 17.5521 -9.76844 -2.89924 
104.408 99.1666 -4.00143 -2.50735 3.26175 -170.314 1.36033 -18.8986 0.435988 1.872 25.2399 2.14533 1.45757 -6.20603 -0.129892 2.00794 3.08887 -1.08061 -4.05829 13.9507 -2.55975 4.96418 -12.8539 -3.44548 -4.3603 4.09425 5.47696 4.96962e-017 3.97569e-016 -0 -110.468 -58.3021 -24.1016 12.8433 8.30615 -12.4654 0.368473 9.90896 -0.00117926 15.3894 0.523656 -1.14965 71.5968 -27.2484 2.55769 1.03182 13.2747 -1.12905 -0.369625 9.91382 0.00119886 -3.81051 1.53896 3.74461 5.60114 43.0586 -7.97084 -3.53166 -3.85361 0.0161383 26.7631 -12.6419 -3.05832 
104.633 98.9193 -5.30816 -1.5478 2.96062 -170.056 2.54651 -19.1869 1.11526 2.37129 26.4463 1.11934 1.20207 -7.16891 -0.129818 1.64475 2.55081 -0.753649 -3.03273 14.5964 -2.88741 5.68039 -13.9655 -3.58994 -4.21431 4.15421 5.59085 5.09386e-016 -3.97569e-016 -3.97569e-016 -108.657 -59.5595 -21.8062 12.8281 8.28641 -12.5461 0.368473 9.90896 -0.00117926 16.1069 0.549974 -1.09925 70.616 -28.0953 2.64883 1.03182 13.2747 -1.12905 -0.369625 9.91382 0.00119886 -2.3813 -1.19391 4.62009 7.68105 47.2785 -9.43801 -4.52007 -2.25806 0.0706258 34.3822 -15.2189 -3.16657 
104.842 98.5044 -6.5437 -0.630787 2.69896 -169.606 3.59963 -19.79 1.31145 2.80366 28.2915 0.444839 1.08571 -8.14227 -0.128856 1.61501 1.5291 -0.535074 -1.84607 14.9997 -3.24872 6.05569 -14.3508 -3.73125 -3.84628 3.64688 5.44522 -2.48481e-017 -3.97569e-016 -0 -107.349 -60.171 -20.0477 12.9444 8.12803 -13.0647 0.368473 9.90896 -0.00117926 17.1339 0.560429 -1.15098 69.7733 -28.8311 3.30017 1.03182 13.2747 -1.12905 -0.369625 9.91382 0.00119886 -1.3107 -4.19333 3.88391 9.27797 51.8755 -11.6815 -5.18955 -0.441451 0.160322 34.7834 -14.8157 -3.24996 
105.042 98.0849 -7.74962 0.20095 2.49934 -169.012 4.51296 -20.3142 1.29746 3.24884 30.091 -0.170399 1.0109 -9.13287 -0.12742 1.89995 0.344439 -0.454047 -0.75469 15.2729 -3.55888 6.20897 -14.3074 -3.84275 -3.26138 2.78757 5.07618 8.38623e-016 1.98785e-016 -7.95139e-016 -106.407 -60.2116 -18.6832 13.1511 7.88954 -13.8178 0.368473 9.90896 -0.00117926 18.4854 0.561928 -1.26206 68.8949 -29.6124 4.34277 1.03182 13.2747 -1.12905 -0.369625 9.91382 0.00119886 -0.594703 -7.2987 1.97653 10.5327 56.3505 -13.4564 -5.50144 0.76008 0.226353 32.3476 -13.6039 -3.29197 
105.232 97.8468 -8.9718 0.825232 2.3999 -168.299 5.17387 -20.3018 1.27904 3.7784 31.0915 -0.931984 0.871823 -10.0682 -0.125898 2.90834 -1.05277 -0.719705 -0.0870412 15.4517 -3.70626 6.15068 -13.9575 -3.89389 -2.42565 1.64216 4.49843 -5.87036e-016 -9.93923e-017 3.97569e-016 -105.874 -59.6176 -17.732 13.4486 7.59158 -14.7148 0.368473 9.90896 -0.00117926 20.2523 0.55542 -1.41994 67.8272 -30.5918 5.77538 1.03182 13.2747 -1.12905 -0.369625 9.91382 0.00119886 -0.366201 -10.2371 -1.28317 9.8701 60.2988 -12.0297 -5.16486 0.0556953 0.187512 29.8507 -13.1741 -3.30112 
105.417 97.6848 -10.1942 1.33003 2.37989 -167.532 5.71383 -20.0196 1.05065 4.19622 31.7671 -1.5279 0.749244 -10.9754 -0.124713 3.87104 -2.27362 -1.00089 0.396266 15.5219 -3.74938 5.97872 -13.3381 -3.88798 -1.51036 0.406641 3.72505 -7.57867e-016 -9.93923e-017 -3.97569e-016 -105.566 -58.6051 -17.0832 13.7499 7.30311 -15.5697 0.368473 9.90896 -0.00117926 22.0757 0.546118 -1.58239 66.8476 -31.5079 7.38782 1.03182 13.2747 -1.12905 -0.369625 9.91382 0.00119886 -0.557387 -13.0415 -5.13737 7.77094 63.6442 -8.80371 -4.62516 -1.07368 0.126465 26.4346 -12.5831 -3.24638 
